<svg xmlns="http://www.w3.org/2000/svg" id="Layer_1" data-name="Layer 1" viewBox="0 0 56 56"><defs/><defs><style>.cls-1{fill:#8c99a5}</style></defs><path d="M52 4v48H4V4h48m1-1H3v50h50V3z"/><circle cx="28" cy="28" r="27.5" class="cls-1"/><path d="M28 1A27 27 0 111 28 27 27 0 0128 1m0-1a28 28 0 1028 28A28 28 0 0028 0z"/><path d="M4 4h48v48H4z" class="cls-1"/><path fill="#8c99a5" stroke="#000" stroke-miterlimit="10" d="M7.5 7.5h41v41h-41z"/><circle cx="28" cy="28" r="24.5" fill="#332e2b"/><path d="M28 4A24 24 0 114 28 24 24 0 0128 4m0-1a25 25 0 1025 25A25 25 0 0028 3z"/></svg>