<svg id="Layer_1" data-name="Layer 1" xmlns="http://www.w3.org/2000/svg" viewBox="0 0 56 56"><defs><style>.cls-1{fill:#a39972;}.cls-2{fill:#b28b7d;stroke:#000;stroke-miterlimit:10;}.cls-3{fill:#3f3029;}</style></defs><title>nlp_blessing-circleArtboard 1</title><path d="M52,4V52H4V4H52m1-1H3V53H53V3Z"/><circle class="cls-1" cx="28" cy="28" r="27.5"/><path d="M28,1A27,27,0,1,1,1,28,27,27,0,0,1,28,1m0-1A28,28,0,1,0,56,28,28,28,0,0,0,28,0Z"/><rect class="cls-1" x="4" y="4" width="48" height="48"/><rect class="cls-2" x="7.5" y="7.5" width="41" height="41"/><circle class="cls-3" cx="28" cy="28" r="24.5"/><path d="M28,4A24,24,0,1,1,4,28,24,24,0,0,1,28,4m0-1A25,25,0,1,0,53,28,25,25,0,0,0,28,3Z"/></svg>